<?xml version="1.0" encoding="UTF-8" standalone="no" ?>
<!DOCTYPE svg PUBLIC "-//W3C//DTD SVG 1.1//EN" "http://www.w3.org/Graphics/SVG/1.1/DTD/svg11.dtd">
<svg xmlns="http://www.w3.org/2000/svg" xmlns:xlink="http://www.w3.org/1999/xlink" version="1.1" width="1080" height="1080" viewBox="0 0 1080 1080" xml:space="preserve">
<desc>Created with Fabric.js 5.2.4</desc>
<defs>
</defs>
<g transform="matrix(1 0 0 1 540 540)" id="383a1210-fc74-4f08-aa03-588443eb559f"  >
<rect style="stroke: none; stroke-width: 1; stroke-dasharray: none; stroke-linecap: butt; stroke-dashoffset: 0; stroke-linejoin: miter; stroke-miterlimit: 4; fill: rgb(255,255,255); fill-rule: nonzero; opacity: 1; visibility: hidden;" vector-effect="non-scaling-stroke"  x="-540" y="-540" rx="0" ry="0" width="1080" height="1080" />
</g>
<g transform="matrix(1 0 0 1 540 540)" id="90e59b31-9c64-4d92-a3e8-b75daeacd4c5"  >
</g>
<g transform="matrix(1 0 0 1 540 540)"  >
<path style="stroke: rgb(10,18,26); stroke-width: 0; stroke-dasharray: none; stroke-linecap: butt; stroke-dashoffset: 0; stroke-linejoin: miter; stroke-miterlimit: 4; fill: rgb(34,47,66); fill-rule: nonzero; opacity: 1;" vector-effect="non-scaling-stroke"  transform=" translate(-282.5, -283.35)" d="M 282.5 1.7 C 127 1.7 1 127.8 1 283.3 C 1 438.8 127 565 282.5 565 C 438 565 564 438.9 564 283.3 C 564 127.70000000000005 438 1.7 282.5 1.7 z M 250.9 445.8 L 233 435.5 L 220.3 326.6 L 197.8 313.6 L 210 292.5 L 216.7 296.4 L 213.79999999999998 271.9 L 281.5 311.2 L 250.9 445.8 z M 398.3 414.2 L 381.3 404.4 L 370.1 362.5 L 400.1 379.9 L 398.3 414.2 z M 401.6 353.3 L 112.2 185.6 C 112.2 185.5 112.3 185.5 112.3 185.4 C 119.1 173.6 143.1 176.6 166.8 190.4 L 237.3 231.10000000000002 L 260.2 221.3 L 253.5 217.4 L 265.7 196.3 L 288.2 209.3 L 389 166 L 406.9 176.4 L 304.5 271 L 391.3 322.2 L 435.8 310.3 L 452.8 320.1 L 401.6 353.3 z" stroke-linecap="round" />
</g>
<g transform="matrix(NaN NaN NaN NaN 0 0)"  >
<g style=""   >
</g>
</g>
<g transform="matrix(NaN NaN NaN NaN 0 0)"  >
<g style=""   >
</g>
</g>
<g transform="matrix(NaN NaN NaN NaN 0 0)"  >
<g style=""   >
</g>
</g>
<g transform="matrix(NaN NaN NaN NaN 0 0)"  >
<g style=""   >
</g>
</g>
</svg>